<svg xmlns="http://www.w3.org/2000/svg" viewBox="0 0 97.25 66.39"><defs><style>.cls-1{fill:#fff;}.cls-2{fill:#00c6ed;}.cls-3{fill:#5fe6ff;}.cls-4{fill:#0090ed;}.cls-5,.cls-6{fill:none;stroke-linecap:round;stroke-linejoin:round;}.cls-5{stroke:#fff;}.cls-6{stroke:#00c6ed;}</style></defs><title>polar_header_v2</title><g id="Layer_1" data-name="Layer 1"><path class="cls-1" d="M66.9,25.88l.27.07L66.9,26a4.39,4.39,0,0,0-3.26,3.13l-.07.26-.07-.26A4.41,4.41,0,0,0,60.24,26L60,26l.27-.07a4.38,4.38,0,0,0,3.26-3.12l.07-.26.07.26a4.37,4.37,0,0,0,3.26,3.12Z" transform="translate(-8.25 -22.5)"/><path class="cls-2" d="M27.19,62.07l.24,0-.24.06A3.92,3.92,0,0,0,24.29,65l-.06.24L24.17,65a3.89,3.89,0,0,0-2.89-2.77L21,62.12l.24,0a3.91,3.91,0,0,0,2.89-2.78l.06-.23.06.23a3.94,3.94,0,0,0,2.9,2.78Z" transform="translate(-8.25 -22.5)"/><path class="cls-1" d="M76.21,35.59l.44.11-.44.1a7,7,0,0,0-5.2,5l-.11.42-.11-.42a7,7,0,0,0-5.2-5l-.43-.1.43-.11a7,7,0,0,0,5.2-5l.11-.42.11.42a7,7,0,0,0,5.2,5Z" transform="translate(-8.25 -22.5)"/><path class="cls-1" d="M37.5,60,40,57.39l6.37.4,9-9.69,4.36,5a14.93,14.93,0,0,0,1.56-6.65C61.36,37.91,54.14,31,45.23,31S29.1,37.91,29.1,46.44A15.37,15.37,0,0,0,37.5,60Z" transform="translate(-8.25 -22.5)"/><path class="cls-3" d="M41.18,58.78l5.44.34L56.74,48.28l1.57,1.8a12.33,12.33,0,0,0,.55-3.66c0-7.17-6.07-13-13.55-13s-13.55,5.8-13.55,13A13.05,13.05,0,0,0,41.18,58.78Z" transform="translate(-8.25 -22.5)"/><polygon class="cls-2" points="22.95 42.73 31.23 34.17 38.36 34.62 48.49 23.78 62.28 39.56 68.58 42.11 80.41 53.6 9.72 53.6 15.58 47 22.95 42.73"/><polygon class="cls-4" points="62.28 39.56 48.52 23.81 53.06 33.02 50.71 38.02 57.23 44.88 56.72 47.58 64.46 53.6 80.41 53.6 68.58 42.11 62.28 39.56"/><polygon class="cls-4" points="32.59 38.97 31.06 37.46 31.54 35.43 31.06 34.96 31.23 34.17 38.36 34.62 32.59 38.97"/><path class="cls-2" d="M14,79l-2.3-2.29a.67.67,0,0,0-1,0L8.45,79a.7.7,0,0,0,0,1,.68.68,0,0,0,1,0l1.12-1.12V88.2a.69.69,0,0,0,.69.69.68.68,0,0,0,.68-.69V78.81L13,79.93a.69.69,0,0,0,.48.2.71.71,0,0,0,.49-.2A.7.7,0,0,0,14,79Z" transform="translate(-8.25 -22.5)"/><path class="cls-1" d="M14,62.43l-2.3-2.29a.67.67,0,0,0-1,0l-2.3,2.29a.69.69,0,1,0,1,1l1.12-1.13v9.4a.68.68,0,0,0,.69.68.67.67,0,0,0,.68-.68v-9.4L13,63.4a.69.69,0,0,0,.48.2.71.71,0,0,0,.49-.2A.7.7,0,0,0,14,62.43Z" transform="translate(-8.25 -22.5)"/><path class="cls-2" d="M14,45.89l-2.3-2.29a.67.67,0,0,0-1,0l-2.3,2.29a.7.7,0,0,0,0,1,.68.68,0,0,0,1,0l1.12-1.12v9.4a.69.69,0,0,0,.69.68.68.68,0,0,0,.68-.68v-9.4L13,46.86a.65.65,0,0,0,.48.2.67.67,0,0,0,.49-.2A.7.7,0,0,0,14,45.89Z" transform="translate(-8.25 -22.5)"/><path class="cls-1" d="M45,47.35l-.74,1.27c-.09.17-.2.33-.28.51a.26.26,0,0,0,0,.17c.18.66.35,1.32.54,2a1.92,1.92,0,0,0,3.52.46.65.65,0,0,1,.8-.31.66.66,0,0,1,.36,1,3.18,3.18,0,0,1-2,1.54,3.25,3.25,0,0,1-4-2.34c-.14-.51-.28-1-.41-1.53,0-.09,0-.13-.16-.1l-.9.24a.66.66,0,0,1-.81-.44.68.68,0,0,1,.48-.85l1.23-.32a.33.33,0,0,0,.23-.18c.3-.52.6-1,.91-1.57a.74.74,0,0,1,.08-.15h-2a.34.34,0,0,0-.19.07L40.14,48.2a1.83,1.83,0,0,0-.57,1.41,1.91,1.91,0,0,0,1.67,1.86l.27,0a.67.67,0,0,1,.68.65.68.68,0,0,1-.68.68,3.23,3.23,0,0,1-3.12-2.3,3.14,3.14,0,0,1,.82-3.27c.38-.4.78-.79,1.18-1.18l0,0-.11-.12c-.21-.21-.42-.41-.62-.62a.66.66,0,1,1,.94-.93l.93.92a.27.27,0,0,0,.16.08h2l0-.09-1-1.67a.26.26,0,0,0-.13-.1c-.7-.2-1.4-.4-2.11-.56a1.9,1.9,0,0,0-2.28,1.61,1.88,1.88,0,0,0,.24,1.23.67.67,0,0,1-.48,1,.65.65,0,0,1-.66-.32,3,3,0,0,1-.42-1.22,3.13,3.13,0,0,1,.68-2.46,3.17,3.17,0,0,1,2.25-1.21,4.31,4.31,0,0,1,1.6.22l1.11.3c.1,0,.13,0,.15-.1l.24-.87a.66.66,0,0,1,.82-.5.68.68,0,0,1,.46.82c-.11.43-.23.86-.33,1.29a.22.22,0,0,0,0,.18l1,1.73,0,0,.47-.82L46,43a.28.28,0,0,0,0-.25c-.18-.65-.34-1.31-.53-2a1.93,1.93,0,0,0-3.5-.49.68.68,0,0,1-.42.36.66.66,0,0,1-.71-.22.63.63,0,0,1,0-.74,3.17,3.17,0,0,1,2.12-1.57,3.24,3.24,0,0,1,3.86,2.37L47.17,42c0,.11.06.13.17.1.3-.09.6-.16.9-.24a.66.66,0,1,1,.32,1.29l-1.23.33a.34.34,0,0,0-.24.18l-.9,1.57s0,.09-.08.14h2a.27.27,0,0,0,.19-.08c.49-.48,1-1,1.45-1.45a1.84,1.84,0,0,0,.46-1.94,1.9,1.9,0,0,0-1.49-1.31,1.94,1.94,0,0,0-.34,0,.68.68,0,0,1-.69-.66.67.67,0,0,1,.69-.67,3.28,3.28,0,0,1,3,2,3.24,3.24,0,0,1-.71,3.54l-1.17,1.17-.06.08.09.09c.22.22.45.44.66.67a.66.66,0,0,1-.93.94c-.32-.31-.64-.63-.95-.95a.27.27,0,0,0-.21-.09h-2a.3.3,0,0,0,0,.1c.32.56.64,1.12,1,1.68a.2.2,0,0,0,.12.1c.71.19,1.41.39,2.13.56a1.91,1.91,0,0,0,2.27-1.63,2,2,0,0,0-.24-1.23.66.66,0,0,1,.24-.92.67.67,0,0,1,.91.26,3.26,3.26,0,0,1-2.17,4.82,3.59,3.59,0,0,1-1.75-.11L47.33,50c-.1,0-.14,0-.16.09-.08.3-.15.6-.24.9a.67.67,0,0,1-.64.5.66.66,0,0,1-.64-.49,1,1,0,0,1,0-.38c.1-.42.22-.85.33-1.28a.2.2,0,0,0,0-.15C45.65,48.55,45.3,48,45,47.35Z" transform="translate(-8.25 -22.5)"/></g><g id="Layer_3" data-name="Layer 3"><path class="cls-5" d="M80,49V42a2,2,0,0,1,2-2h3" transform="translate(-8.25 -22.5)"/><path class="cls-5" d="M95,40h3a2,2,0,0,1,2,2v7" transform="translate(-8.25 -22.5)"/><line class="cls-5" x1="76.75" y1="33.5" x2="86.75" y2="33.5"/><polygon class="cls-6" points="81.75 10.5 76.75 13.5 81.75 16.5 86.75 13.5 81.75 10.5"/><polyline class="cls-6" points="76.75 19.5 81.75 22.5 86.75 19.5"/><line class="cls-6" x1="76.75" y1="13.5" x2="76.75" y2="19.5"/><line class="cls-6" x1="86.75" y1="13.5" x2="86.75" y2="19.5"/><line class="cls-6" x1="81.75" y1="16.5" x2="81.75" y2="22.5"/><polygon class="cls-6" points="71.75 26.5 66.75 29.5 71.75 32.5 76.75 29.5 71.75 26.5"/><line class="cls-6" x1="71.75" y1="38.5" x2="76.75" y2="35.5"/><line class="cls-6" x1="70.08" y1="37.5" x2="71.75" y2="38.5"/><line class="cls-6" x1="66.75" y1="29.5" x2="66.75" y2="35.5"/><line class="cls-6" x1="76.75" y1="29.5" x2="76.75" y2="35.5"/><line class="cls-6" x1="71.75" y1="32.5" x2="71.75" y2="38.5"/><polygon class="cls-6" points="91.75 26.5 86.75 29.5 91.75 32.5 96.75 29.5 91.75 26.5"/><polyline class="cls-6" points="86.75 35.5 91.75 38.5 96.75 35.5"/><line class="cls-6" x1="86.75" y1="29.5" x2="86.75" y2="35.5"/><line class="cls-6" x1="96.75" y1="29.5" x2="96.75" y2="35.5"/><line class="cls-6" x1="91.75" y1="32.5" x2="91.75" y2="38.5"/></g></svg>