<svg id="fast_forward" data-name="fast forward" xmlns="http://www.w3.org/2000/svg" viewBox="0 0 59.08 111.62"><defs><style>.cls-1{fill:#00c6ed;}</style></defs><title>polar_arrow</title><path class="cls-1" d="M92,56.37a5.54,5.54,0,0,0,1.64-3.93h0a5.56,5.56,0,0,0-9.49-3.94L69,63.66a6.92,6.92,0,0,1-9.79,0L44,48.5a5.56,5.56,0,0,0-9.49,3.94h0a5.53,5.53,0,0,0,1.63,3.93L58.52,78.7a7.85,7.85,0,0,0,11.09,0Z" transform="translate(-34.52 -8.19)"/><path class="cls-1" d="M92,95.19a5.55,5.55,0,0,0,1.64-3.94h0a5.56,5.56,0,0,0-9.49-3.93L69,102.48a6.92,6.92,0,0,1-9.79,0L44,87.32a5.56,5.56,0,0,0-9.49,3.93h0a5.54,5.54,0,0,0,1.63,3.94l22.37,22.33a7.86,7.86,0,0,0,11.09,0Z" transform="translate(-34.52 -8.19)"/><path class="cls-1" d="M92,17.68a5.52,5.52,0,0,0,1.64-3.93h0a5.56,5.56,0,0,0-9.49-3.93L69,25a6.92,6.92,0,0,1-9.79,0L44,9.82a5.56,5.56,0,0,0-9.49,3.93h0a5.51,5.51,0,0,0,1.63,3.93L58.52,40a7.86,7.86,0,0,0,11.09,0Z" transform="translate(-34.52 -8.19)"/></svg>